<svg width="31" height="33" viewBox="0 0 31 33" fill="none" xmlns="http://www.w3.org/2000/svg">
<path fill-rule="evenodd" clip-rule="evenodd" d="M6.3373 23.5509C5.79703 22.868 5.14072 21.4717 3.97267 19.7767C3.31065 18.8179 1.66892 17.0125 1.18002 16.0956C0.755792 15.2852 0.801448 14.9219 0.902273 14.2503C1.08109 13.0556 2.30621 12.1254 3.61313 12.251C4.60045 12.3442 5.43748 12.9967 6.19081 13.613C6.64548 13.984 7.20477 14.705 7.54148 15.1121C7.85157 15.485 7.92766 15.639 8.25867 16.0804C8.69621 16.6644 8.83318 16.9536 8.66578 16.3106C8.53071 15.367 8.31004 13.7557 7.99044 12.3309C7.74694 11.2503 7.68797 11.081 7.45588 10.2516C7.21048 9.36889 7.08492 8.75062 6.85473 7.81466C6.69494 7.15265 6.40768 5.80007 6.32969 5.03913C6.22125 3.99854 6.16418 2.30165 6.83191 1.52168C7.35505 0.911025 8.55544 0.726497 9.29926 1.10316C10.2733 1.59587 10.8268 3.01122 11.0799 3.57622C11.5345 4.59208 11.8161 5.76583 12.0615 7.30674C12.3735 9.26806 12.948 11.9903 12.967 12.5629C13.0127 11.861 12.8376 10.3828 12.9594 9.70941C13.0697 9.09875 13.5834 8.38917 14.2264 8.19704C14.7704 8.03534 15.4077 7.97636 15.9689 8.09241C16.5643 8.21416 17.1921 8.64029 17.4261 9.04168C18.1148 10.2288 18.1281 12.6542 18.1566 12.5249C18.3202 11.8096 18.2917 10.1869 18.6969 9.51156C18.9632 9.06641 19.6424 8.66502 20.0038 8.60034C20.5631 8.50141 21.2498 8.47098 21.8377 8.58512C22.3114 8.67833 22.9524 9.24143 23.1256 9.51156C23.5403 10.166 23.7762 12.017 23.8466 12.6657C23.8751 12.9339 23.9873 11.9199 24.4039 11.2655C25.1763 10.0499 27.91 9.81404 28.0146 12.4811C28.0622 13.7253 28.0527 13.6682 28.0527 14.5052C28.0527 15.4888 28.0298 16.0804 27.9766 16.7919C27.9176 17.5528 27.754 19.2725 27.5162 20.1058C27.3526 20.6784 26.8104 21.9663 26.2759 22.7386C26.2759 22.7386 24.2327 25.1166 24.0102 26.1876C23.7857 27.2567 23.8599 27.2643 23.8161 28.0234C23.7724 28.7805 24.0463 29.7773 24.0463 29.7773C24.0463 29.7773 22.5206 29.9752 21.6988 29.8439C20.955 29.7241 20.0342 28.244 19.7964 27.7913C19.4692 27.1673 18.7711 27.2871 18.499 27.7475C18.071 28.4761 17.1503 29.783 16.4997 29.8648C15.2289 30.0246 12.5922 29.9238 10.5282 29.9029C10.5282 29.9029 10.8801 27.9796 10.0963 27.3195C9.51613 26.8268 8.51739 25.828 7.92005 25.303L6.3373 23.5509Z" fill="white"/>
<path fill-rule="evenodd" clip-rule="evenodd" d="M6.3373 23.5509C5.79703 22.868 5.14072 21.4717 3.97267 19.7767C3.31065 18.8179 1.66892 17.0125 1.18002 16.0956C0.755792 15.2852 0.801448 14.9219 0.902273 14.2503C1.08109 13.0556 2.30621 12.1254 3.61313 12.251C4.60045 12.3442 5.43748 12.9967 6.19081 13.613C6.64548 13.984 7.20477 14.705 7.54148 15.1121C7.85157 15.485 7.92766 15.639 8.25867 16.0804C8.69621 16.6644 8.83318 16.9536 8.66578 16.3106C8.53071 15.367 8.31004 13.7557 7.99044 12.3309C7.74694 11.2503 7.68797 11.081 7.45588 10.2516C7.21048 9.36889 7.08492 8.75062 6.85473 7.81466C6.69494 7.15265 6.40768 5.80007 6.32969 5.03913C6.22125 3.99854 6.16418 2.30165 6.83191 1.52168C7.35505 0.911025 8.55544 0.726497 9.29926 1.10316C10.2733 1.59587 10.8268 3.01122 11.0799 3.57622C11.5345 4.59208 11.8161 5.76583 12.0615 7.30674C12.3735 9.26806 12.948 11.9903 12.967 12.5629C13.0127 11.861 12.8376 10.3828 12.9594 9.70941C13.0697 9.09875 13.5834 8.38917 14.2264 8.19704C14.7704 8.03534 15.4077 7.97636 15.9689 8.09241C16.5643 8.21416 17.1921 8.64029 17.4261 9.04168C18.1148 10.2288 18.1281 12.6542 18.1566 12.5249C18.3202 11.8096 18.2917 10.1869 18.6969 9.51156C18.9632 9.06641 19.6424 8.66502 20.0038 8.60034C20.5631 8.50141 21.2498 8.47098 21.8377 8.58512C22.3114 8.67833 22.9524 9.24143 23.1256 9.51156C23.5403 10.166 23.7762 12.017 23.8466 12.6657C23.8751 12.9339 23.9873 11.9199 24.4039 11.2655C25.1763 10.0499 27.91 9.81404 28.0146 12.4811C28.0622 13.7253 28.0527 13.6682 28.0527 14.5052C28.0527 15.4888 28.0298 16.0804 27.9766 16.7919C27.9176 17.5528 27.754 19.2725 27.5162 20.1058C27.3526 20.6784 26.8104 21.9663 26.2759 22.7386C26.2759 22.7386 24.2327 25.1166 24.0102 26.1876C23.7857 27.2567 23.8599 27.2643 23.8161 28.0234C23.7724 28.7805 24.0463 29.7773 24.0463 29.7773C24.0463 29.7773 22.5206 29.9752 21.6988 29.8439C20.955 29.7241 20.0342 28.244 19.7964 27.7913C19.4692 27.1673 18.7711 27.2871 18.499 27.7475C18.071 28.4761 17.1503 29.783 16.4997 29.8648C15.2289 30.0246 12.5922 29.9238 10.5282 29.9029C10.5282 29.9029 10.8801 27.9796 10.0963 27.3195C9.51613 26.8268 8.51739 25.828 7.92005 25.303L6.3373 23.5509Z" stroke="black" stroke-width="1.42676" stroke-linecap="round" stroke-linejoin="round"/>
<path d="M22.0029 24.2253V17.6451" stroke="black" stroke-width="1.42676" stroke-linecap="round"/>
<path d="M18.1691 24.2476L18.1387 17.6407" stroke="black" stroke-width="1.42676" stroke-linecap="round"/>
<path d="M14.3721 17.7008L14.412 24.2183" stroke="black" stroke-width="1.42676" stroke-linecap="round"/>
</svg>
