<svg width="30" height="27" viewBox="0 0 30 27" fill="none" xmlns="http://www.w3.org/2000/svg">
<path fill-rule="evenodd" clip-rule="evenodd" d="M7.6514 3.87341C8.56453 3.53479 10.3661 3.74215 10.8416 4.77323C11.2468 5.65211 11.595 7.13405 11.614 6.81825C11.6597 6.11629 11.5683 4.59821 11.8746 3.80493C12.0972 3.22661 12.5347 2.68254 13.1796 2.4904C13.7218 2.3268 14.3591 2.26973 14.9222 2.38577C15.5176 2.50752 16.1435 2.93175 16.3775 3.33505C17.0661 4.52021 17.0776 6.94761 17.1099 6.81825C17.2317 6.30081 17.2431 4.48026 17.6483 3.80493C17.9165 3.35788 18.5937 2.95838 18.9552 2.8937C19.5145 2.79478 20.2031 2.76434 20.7891 2.87848C21.2627 2.9717 21.9038 3.53289 22.0769 3.80493C22.4936 4.45934 22.7276 6.30842 22.7979 6.95903C22.8284 7.22726 22.9387 6.2114 23.3553 5.5589C24.1277 4.34329 26.8633 4.1074 26.966 6.7745C27.0155 8.01864 27.004 7.96157 27.004 8.7986C27.004 9.78022 26.9812 10.3738 26.9279 11.0852C26.8709 11.8443 26.7073 13.5659 26.4695 14.3991C26.3059 14.9717 25.7637 16.2596 25.2272 17.032C25.2272 17.032 23.1841 19.4099 22.9615 20.4791C22.739 21.5501 22.8132 21.5577 22.7675 22.3148C22.7237 23.0739 22.9977 24.0707 22.9977 24.0707C22.9977 24.0707 21.4739 24.2685 20.6502 24.1354C19.9064 24.0174 18.9856 22.5374 18.7478 22.0846C18.4206 21.4607 17.7225 21.5805 17.4504 22.0409C17.0243 22.7695 16.1017 24.0764 15.453 24.1582C14.1803 24.318 11.5436 24.2153 9.47956 24.1962C9.47956 24.1962 9.8315 22.273 9.04773 21.6129C8.46751 21.1182 7.46878 20.1214 6.87144 19.5964L5.28868 17.8443C4.75031 17.1594 3.38252 16.077 2.92406 14.0681C2.51885 12.2875 2.5588 11.4143 2.99444 10.701C3.43579 9.97616 4.26902 9.58047 4.61905 9.51199C5.01474 9.43209 5.93548 9.43779 6.28361 9.62993C6.70783 9.86392 6.87905 9.93241 7.21196 10.3738C7.6495 10.9578 7.80549 11.2412 7.61716 10.6039C7.47258 10.1055 7.0046 9.47204 6.79154 8.75865C6.58418 8.07191 6.0287 6.96474 6.06864 5.85566C6.08386 5.43524 6.26459 4.38895 7.6514 3.87341Z" fill="white"/>
<path fill-rule="evenodd" clip-rule="evenodd" d="M7.6514 3.87341C8.56453 3.53479 10.3661 3.74215 10.8416 4.77323C11.2468 5.65211 11.595 7.13405 11.614 6.81825C11.6597 6.11629 11.5683 4.59821 11.8746 3.80493C12.0972 3.22661 12.5347 2.68254 13.1796 2.4904C13.7218 2.3268 14.3591 2.26973 14.9222 2.38577C15.5176 2.50752 16.1435 2.93175 16.3775 3.33505C17.0661 4.52021 17.0776 6.94761 17.1099 6.81825C17.2317 6.30081 17.2431 4.48026 17.6483 3.80493C17.9165 3.35788 18.5937 2.95838 18.9552 2.8937C19.5145 2.79478 20.2031 2.76434 20.7891 2.87848C21.2627 2.9717 21.9038 3.53289 22.0769 3.80493C22.4936 4.45934 22.7276 6.30842 22.7979 6.95903C22.8284 7.22726 22.9387 6.2114 23.3553 5.5589C24.1277 4.34329 26.8633 4.1074 26.966 6.7745C27.0155 8.01864 27.004 7.96157 27.004 8.7986C27.004 9.78022 26.9812 10.3738 26.9279 11.0852C26.8709 11.8443 26.7073 13.5659 26.4695 14.3991C26.3059 14.9717 25.7637 16.2596 25.2272 17.032C25.2272 17.032 23.1841 19.4099 22.9615 20.4791C22.739 21.5501 22.8132 21.5577 22.7675 22.3148C22.7237 23.0739 22.9977 24.0707 22.9977 24.0707C22.9977 24.0707 21.4739 24.2685 20.6502 24.1354C19.9064 24.0174 18.9856 22.5374 18.7478 22.0846C18.4206 21.4607 17.7225 21.5805 17.4504 22.0409C17.0243 22.7695 16.1017 24.0764 15.453 24.1582C14.1803 24.318 11.5436 24.2153 9.47956 24.1962C9.47956 24.1962 9.8315 22.273 9.04773 21.6129C8.46751 21.1182 7.46878 20.1214 6.87144 19.5964L5.28868 17.8443C4.75031 17.1594 3.38252 16.077 2.92406 14.0681C2.51885 12.2875 2.5588 11.4143 2.99444 10.701C3.43579 9.97616 4.26902 9.58047 4.61905 9.51199C5.01474 9.43209 5.93548 9.43779 6.28361 9.62993C6.70783 9.86392 6.87905 9.93241 7.21196 10.3738C7.6495 10.9578 7.80549 11.2412 7.61716 10.6039C7.47258 10.1055 7.0046 9.47204 6.79154 8.75865C6.58418 8.07191 6.0287 6.96474 6.06864 5.85566C6.08386 5.43524 6.26459 4.38895 7.6514 3.87341Z" stroke="black" stroke-width="1.42676" stroke-linejoin="round"/>
<path d="M20.9541 18.5182V11.938" stroke="black" stroke-width="1.42676" stroke-linecap="round"/>
<path d="M17.1203 18.5406L17.0898 11.9337" stroke="black" stroke-width="1.42676" stroke-linecap="round"/>
<path d="M13.3232 11.9937L13.3632 18.5112" stroke="black" stroke-width="1.42676" stroke-linecap="round"/>
</svg>
